<?xml version="1.0" encoding="UTF-8"?>
<!DOCTYPE svg PUBLIC "-//W3C//DTD SVG 1.1//EN" "http://www.w3.org/Graphics/SVG/1.1/DTD/svg11.dtd">
<!-- Creator: CorelDRAW (Versão OEM) -->
<svg xmlns="http://www.w3.org/2000/svg" xml:space="preserve" width="128.001mm" height="140.749mm" version="1.1" style="shape-rendering:geometricPrecision; text-rendering:geometricPrecision; image-rendering:optimizeQuality; fill-rule:evenodd; clip-rule:evenodd"
viewBox="0 0 4066.37 4471.36"
 xmlns:xlink="http://www.w3.org/1999/xlink"
 xmlns:xodm="http://www.corel.com/coreldraw/odm/2003">
 <defs>
  <style type="text/css">
   <![CDATA[
    .fil0 {fill:#FB6624}
   ]]>
  </style>
 </defs>
 <g id="Camada_x0020_1">
  <metadata id="CorelCorpID_0Corel-Layer"/>
  <g id="_2858593306192">
   <path class="fil0" d="M1.47 555.39l-1.47 3353.42 667.08 195.04 4.47 -973.34c104.54,-6.9 1037.69,308.83 1252.17,347.04l3.35 -3474.59c-175.73,15.49 -1636.66,495.53 -1925.59,552.43l-0.02 0zm670 486l-0.37 1401.39 556.39 164.22 2.02 -1723.32 -558.04 157.69 0 0.02z"/>
   <path class="fil0" d="M2138.64 4464.68c76.91,-0.08 1198.53,-343.76 1442.6,-413.85 147.75,-42.43 352.37,-94.6 483.75,-146.28l0.9 -1317.03 -672.77 -5.8 -0.72 852.47 -552.6 156.33 -2.2 -2709.97 555.06 156.98 1.43 904.13 669.4 1.82 2.88 -1383.61c-197.49,-60.45 -1872.1,-561.47 -1926.41,-559.88l-1.29 4464.63 -0.03 0.04z"/>
   <path class="fil0" d="M1012.81 4201.49l912.48 269.87 1.53 -761.8 -909.45 -266.17 -4.57 758.09 0 0zm267.15 -468.24l384.94 117.61 0 320.77 -384.94 -117.61 0 -320.79 0 0.02z"/>
  </g>
 </g>
</svg>
